# xmcd
#
# Track frame offsets:
#	150
#	18042
#	35595
#	51187
#	62977
#	82620
#	98197
#	114692
#	132105
#	147212
#	168977
#	185535
#	202675
#	217380
#
# Disc length: 3104 seconds
#
# Revision: 5
# Processed by: cddbd v1.5.2PL0 Copyright (c) Steve Scherf et al.
# Submitted via: dBpowerAMP V4.0
#
DISCID=bf0c1e0e
DTITLE=Andre Hazes - Met heel mijn hart
DYEAR=1993
DGENRE=Folk
TTITLE0=Ik dacht dat het uit was
TTITLE1=Allen met jou
TTITLE2=Uit m'n bol
TTITLE3=Jij hebt gelijk m'n schat
TTITLE4=Wat ik ook doe
TTITLE5=Dat was mijn zomer
TTITLE6='n Afscheidskus
TTITLE7=Mag ik dan voor altijd bij je blijven
TTITLE8=Nou ben ik aan de beurt
TTITLE9=Ik leef m'n eigen leven
TTITLE10=Oh als jij eens wist
TTITLE11=Wees blij dat je nog leven mag
TTITLE12=Laila
TTITLE13=Droomland
EXTD=stefan\n
EXTT0=
EXTT1=
EXTT2=
EXTT3=
EXTT4=
EXTT5=
EXTT6=
EXTT7=
EXTT8=
EXTT9=
EXTT10=
EXTT11=
EXTT12=
EXTT13=
PLAYORDER=
